<svg width="24" height="24" viewBox="0 0 24 24" fill="currentColor" xmlns="http://www.w3.org/2000/svg">
<g clip-path="url(#clip0_86_399)">
<path fill-rule="evenodd" clip-rule="evenodd" d="M6.00341 5.99659C5.63502 6.36498 5.63502 6.96227 6.00341 7.33066L10.6727 11.9999L6.00335 16.6693C5.63495 17.0377 5.63495 17.635 6.00335 18.0033C6.37174 18.3717 6.96903 18.3717 7.33742 18.0033L12.0068 13.334L16.676 18.0033C17.0444 18.3717 17.6417 18.3717 18.0101 18.0033C18.3785 17.6349 18.3785 17.0376 18.0101 16.6692L13.3408 11.9999L18.01 7.33075C18.3784 6.96235 18.3784 6.36507 18.01 5.99667C17.6416 5.62828 17.0443 5.62828 16.6759 5.99667L12.0068 10.6659L7.33749 5.99659C6.96909 5.62819 6.37181 5.62819 6.00341 5.99659Z" fill="#EF382B"/>
</g>
<defs>
<clipPath id="clip0_86_399">
<rect width="24" height="24" fill="white"/>
</clipPath>
</defs>
</svg>
